var face = {"glyphs":{"S":{"x_min":63.890625,"x_max":825.0625,"ha":811,"o":"m 223 241 q 256 200 231 230 q 312 147 281 169 q 357 123 343 125 q 368 136 372 122 q 313 178 365 150 q 223 241 261 206 m 825 897 q 787 602 809 751 q 733 297 765 454 q 685 338 708 318 q 633 377 662 358 q 582 391 604 397 q 561 361 561 384 q 575 316 561 338 q 611 272 590 293 q 644 217 632 251 q 659 138 657 183 l 659 120 q 644 41 659 79 q 602 -22 629 4 q 537 -65 575 -50 q 454 -81 500 -81 q 301 -41 362 -81 q 226 6 240 -1 l 209 255 q 147 322 175 286 q 102 402 120 358 q 73 502 83 447 q 63 626 63 556 q 92 799 63 725 q 172 922 120 873 q 295 997 223 972 q 452 1022 366 1022 q 481 1021 466 1022 q 511 1019 495 1020 q 775 966 663 1009 l 825 897 m 759 934 q 620 972 700 958 q 452 987 540 987 q 318 968 383 987 q 205 907 254 950 q 127 795 156 863 q 98 626 98 726 q 138 406 98 491 q 216 302 169 344 q 308 230 263 259 q 384 180 352 201 q 415 140 415 159 q 363 87 415 87 q 251 156 308 87 l 259 29 q 419 -16 336 -16 q 490 -3 458 -16 q 545 32 522 9 q 581 87 568 55 q 594 155 594 119 l 594 172 q 575 243 591 213 q 541 297 559 273 q 509 343 523 320 q 495 393 495 365 q 511 441 495 419 q 555 462 527 462 q 679 390 598 462 q 725 654 705 519 q 759 934 744 790 "},"/":{"x_min":5.5625,"x_max":634.765625,"ha":607,"o":"m 605 919 l 634 883 q 402 417 511 661 q 197 -98 293 173 l 5 29 q 98 293 50 159 q 195 556 147 427 q 290 803 243 684 q 379 1023 337 922 l 605 919 m 397 977 q 225 541 312 773 q 48 45 138 309 l 147 -16 q 556 904 329 497 l 397 977 "},"K":{"x_min":111.125,"x_max":979.25,"ha":996,"o":"m 531 1018 l 894 998 l 920 959 l 734 670 q 979 2 788 344 l 579 -83 q 488 22 513 -18 l 484 -51 l 162 -75 l 118 -11 l 111 1002 l 531 1018 m 156 961 l 156 -6 l 420 12 l 438 250 q 555 -13 477 80 l 897 59 q 668 711 722 379 l 833 966 l 548 984 l 476 722 l 497 983 l 156 961 "},"7":{"x_min":58.34375,"x_max":934.796875,"ha":906,"o":"m 905 1013 q 934 975 904 1011 q 584 -70 759 341 l 255 -56 l 216 -26 q 245 170 229 76 q 286 354 262 265 l 105 347 l 68 400 l 58 991 l 905 1013 m 101 958 l 101 413 l 343 423 q 255 6 281 223 l 530 -4 q 859 977 694 386 l 101 958 "},"d":{"x_min":55.5625,"x_max":813.953125,"ha":885,"o":"m 380 -86 q 293 -63 331 -86 q 218 -9 255 -40 q 100 137 145 45 q 55 352 55 229 q 79 512 55 437 q 143 643 102 587 q 240 730 184 698 q 359 762 295 762 q 436 748 390 762 l 429 1057 l 813 1087 l 791 -76 l 531 -76 l 512 -56 q 394 -86 458 -86 l 380 -86 m 769 0 l 769 1055 l 470 1033 l 494 319 l 443 711 q 359 727 394 727 q 253 698 302 727 q 168 618 204 669 q 111 498 131 566 q 90 352 90 430 q 111 206 90 275 q 168 88 131 138 q 253 8 204 37 q 359 -20 302 -20 q 520 45 450 -20 l 525 -9 l 769 0 "},",":{"x_min":55.5625,"x_max":352.8125,"ha":382,"o":"m 55 12 q 94 84 55 55 q 188 113 133 113 q 263 96 230 113 q 322 45 295 79 q 352 -20 350 12 l 352 -22 q 336 -76 352 -51 q 290 -121 319 -101 q 223 -155 262 -141 q 140 -175 184 -169 l 108 -143 q 104 -143 105 -143 q 101 -144 102 -144 l 88 -55 q 64 -24 73 -41 q 55 12 55 -6 m 90 12 q 119 -34 90 -15 q 188 -52 148 -52 q 204 -51 200 -52 q 137 -66 181 -66 l 126 -66 l 131 -105 q 242 -64 197 -95 q 287 12 287 -33 l 287 13 q 257 59 286 40 q 188 79 229 79 q 119 59 148 79 q 90 12 90 40 "},"Y":{"x_min":54.171875,"x_max":1012.578125,"ha":1038,"o":"m 293 508 l 54 1016 l 547 1016 l 569 986 l 573 1015 l 984 1015 l 980 1007 l 1012 976 l 751 441 l 716 -59 l 345 -83 l 293 -52 l 293 508 m 340 -16 l 652 4 l 687 486 l 927 963 l 598 963 l 555 850 l 522 963 l 109 963 l 327 520 l 340 -16 "},"E":{"x_min":76.390625,"x_max":937.578125,"ha":974,"o":"m 907 1027 l 937 988 q 918 842 929 919 q 897 688 908 765 q 875 538 886 611 q 852 406 863 466 l 590 415 l 632 220 l 468 205 l 826 209 l 857 170 l 838 -84 l 162 -84 l 123 -54 q 106 209 113 73 q 92 482 98 345 q 81 752 86 619 q 76 1005 77 884 l 907 1027 m 111 972 q 156 -19 119 490 l 775 -16 l 788 154 l 395 154 l 405 268 l 561 283 l 538 402 l 412 351 l 425 486 l 791 473 q 832 723 813 594 q 868 991 851 852 l 111 972 "},"y":{"x_min":56.953125,"x_max":801.453125,"ha":820,"o":"m 438 751 l 455 725 l 770 751 l 801 720 q 667 108 748 395 q 473 -443 586 -179 l 200 -379 l 170 -350 l 159 -347 q 229 -167 201 -248 q 272 -18 256 -86 q 147 312 197 122 q 56 718 97 502 l 438 751 m 98 686 q 184 304 134 484 q 309 -13 234 125 q 270 -157 295 -80 q 206 -323 245 -234 l 420 -373 q 514 -129 469 -259 q 600 141 559 1 q 672 428 640 281 q 729 720 705 575 l 450 688 l 405 220 l 405 713 l 98 686 "},"\"":{"x_min":38.890625,"x_max":454.203125,"ha":472,"o":"m 243 1080 l 243 1079 l 423 1080 l 454 1041 q 443 967 450 1008 q 430 883 437 926 q 417 800 423 840 q 405 732 411 761 l 265 732 l 230 762 q 227 745 229 752 q 225 732 226 738 l 84 732 l 45 762 q 43 814 44 784 q 40 875 41 844 q 39 938 40 907 q 38 997 38 969 l 38 1080 l 243 1080 m 73 1044 l 73 997 q 75 893 73 943 q 79 797 76 843 l 163 797 q 184 917 175 855 q 202 1045 193 979 l 73 1044 m 254 1044 l 254 997 q 255 893 254 943 q 259 797 256 843 l 344 797 q 364 917 355 855 q 383 1045 373 979 l 254 1044 "},"‹":{"x_min":58.34375,"x_max":645.890625,"ha":696,"o":"m 607 791 l 641 761 l 641 340 l 536 319 l 613 291 l 613 284 l 645 254 l 645 83 l 100 287 l 72 315 l 58 319 l 58 501 l 607 802 l 607 791 m 572 744 l 95 480 l 95 344 l 579 162 l 579 266 l 338 354 l 576 400 l 572 744 "},"„":{"x_min":55.5625,"x_max":587.546875,"ha":633,"o":"m 55 12 q 94 84 55 55 q 188 113 133 113 q 258 98 227 113 q 305 59 288 83 q 353 98 322 83 q 423 113 384 113 q 497 96 465 113 q 557 45 530 79 q 587 -20 584 12 l 587 -22 q 570 -76 587 -51 q 525 -121 554 -101 q 458 -155 497 -141 q 375 -175 419 -169 l 343 -143 q 338 -143 340 -143 q 336 -144 337 -144 l 327 -86 q 251 -142 300 -119 q 140 -175 202 -165 l 108 -143 q 101 -144 102 -143 l 88 -55 q 64 -24 73 -41 q 55 12 55 -6 m 325 12 q 354 -34 325 -15 q 423 -52 383 -52 q 438 -51 434 -52 q 372 -66 416 -66 l 361 -66 l 366 -105 q 477 -64 431 -95 q 522 12 522 -33 l 522 13 q 492 59 520 40 q 423 79 463 79 q 354 59 383 79 q 325 12 325 40 m 90 12 q 119 -34 90 -15 q 188 -52 148 -52 q 204 -51 200 -52 q 137 -66 181 -66 l 126 -66 l 131 -105 q 242 -64 197 -95 q 287 12 287 -33 l 287 13 q 257 59 286 40 q 188 79 229 79 q 119 59 148 79 q 90 12 90 40 "},"g":{"x_min":31.953125,"x_max":832.015625,"ha":857,"o":"m 136 526 q 154 615 136 575 q 206 685 173 655 q 284 734 238 715 q 392 753 329 752 q 481 745 455 754 l 481 744 q 554 710 522 733 q 611 655 587 687 l 623 644 q 636 629 630 637 q 648 613 641 622 l 754 604 l 783 565 l 722 369 l 657 381 q 616 333 640 355 q 562 295 593 311 q 663 240 615 279 q 750 153 712 202 q 809 47 787 104 q 832 -65 832 -9 q 801 -202 832 -138 q 718 -314 770 -266 q 597 -390 666 -362 q 450 -418 527 -418 q 293 -386 369 -418 q 159 -300 218 -354 q 66 -177 101 -247 q 31 -30 31 -106 q 59 102 31 34 q 136 218 87 169 q 101 277 113 240 l 193 369 l 198 376 q 152 444 169 406 q 136 526 136 481 m 195 220 q 141 172 165 201 q 101 111 118 144 q 75 40 84 77 q 66 -30 66 4 q 94 -156 66 -97 q 169 -259 122 -215 q 279 -327 216 -302 q 415 -352 343 -352 q 550 -327 486 -352 q 661 -259 613 -302 q 738 -156 709 -215 q 766 -30 766 -97 q 738 94 766 36 q 661 196 709 152 q 550 265 613 240 q 415 290 486 290 q 304 307 351 290 q 229 356 256 325 l 227 355 l 143 269 q 195 220 156 231 m 170 526 q 188 450 170 486 q 237 387 206 413 q 309 345 268 361 q 395 330 350 330 q 524 364 468 330 q 607 452 580 398 l 666 440 l 708 573 l 612 583 q 539 679 593 641 q 415 723 486 716 l 390 426 l 375 723 q 296 704 333 720 q 231 660 259 687 q 186 598 202 633 q 170 526 170 563 "},"–":{"x_min":54.171875,"x_max":759.78125,"ha":793,"o":"m 729 538 l 727 531 l 759 500 l 733 341 l 106 341 l 76 372 l 68 372 l 54 538 l 729 538 m 91 486 l 100 400 l 672 400 l 688 502 l 91 486 "},"e":{"x_min":66.671875,"x_max":730.609375,"ha":775,"o":"m 316 -63 q 218 5 263 -34 q 138 97 172 45 q 86 211 105 148 q 66 350 66 275 q 146 648 66 541 q 390 755 226 755 q 627 674 558 755 q 713 534 695 593 q 730 422 730 475 q 712 295 730 350 q 661 202 694 241 l 447 204 q 473 175 452 187 q 525 156 494 163 q 591 145 555 148 q 663 141 627 141 l 691 102 l 604 -120 q 428 -101 500 -115 q 316 -63 356 -87 m 395 519 l 395 269 l 612 268 q 650 343 636 295 q 665 456 665 390 q 595 650 665 579 q 390 720 525 720 q 172 622 244 720 q 101 350 101 523 q 124 206 101 273 q 186 88 147 138 q 232 38 206 62 q 299 -4 258 15 q 400 -36 340 -23 q 548 -54 459 -50 l 611 106 q 431 153 493 106 q 370 287 370 200 l 395 519 "},"J":{"x_min":33.34375,"x_max":672.28125,"ha":704,"o":"m 641 1019 l 672 980 q 660 801 665 893 q 650 618 655 709 q 638 440 645 527 q 623 273 632 352 q 500 -36 601 75 q 226 -172 398 -147 l 188 -141 l 33 175 q 165 220 120 184 q 209 323 209 256 l 209 343 q 194 663 201 490 q 183 1019 187 837 l 641 1019 m 219 961 q 244 344 227 637 l 244 323 q 87 145 244 162 l 209 -104 q 448 21 358 -81 q 558 312 538 125 q 586 638 576 472 q 605 983 595 805 l 219 961 "},"|":{"x_min":63.890625,"x_max":204.1875,"ha":246,"o":"m 63 1082 l 173 1082 l 173 1073 l 204 1043 l 204 -268 l 102 -268 l 72 -237 l 63 -237 l 63 1082 m 98 -202 l 138 -202 l 138 1047 l 98 1047 l 98 -202 "},"^":{"x_min":36.109375,"x_max":640.328125,"ha":649,"o":"m 404 1016 l 436 977 l 640 497 l 379 497 l 350 526 l 343 504 l 77 504 l 36 534 l 262 1034 l 404 1016 m 283 997 l 90 566 l 286 566 l 333 730 l 369 570 l 559 570 l 380 984 l 283 997 "},"q":{"x_min":54.171875,"x_max":783.390625,"ha":864,"o":"m 763 -411 l 502 -411 l 463 -380 l 458 -88 q 388 -101 413 -101 q 268 -68 327 -101 q 160 24 208 -34 q 83 163 112 83 q 54 338 54 244 q 76 497 54 423 q 139 627 98 572 q 236 715 180 683 q 359 747 293 747 q 414 738 388 747 q 462 705 440 729 l 783 743 l 763 -411 m 747 705 l 484 684 l 484 650 q 359 712 443 712 q 250 683 300 712 q 165 603 201 654 q 109 484 129 552 q 88 338 88 416 q 109 193 88 261 q 165 73 130 125 q 250 -6 201 22 q 354 -36 298 -36 q 455 -13 390 -36 l 498 372 l 498 -348 l 700 -348 l 747 705 "},"b":{"x_min":81.953125,"x_max":882.015625,"ha":907,"o":"m 81 1059 l 466 1093 l 497 1054 l 480 758 q 527 762 505 762 l 534 762 q 662 725 600 762 q 773 625 725 687 q 852 484 822 563 q 882 318 882 404 q 857 161 882 234 q 788 32 832 87 q 687 -54 745 -22 q 562 -86 629 -86 q 425 -45 490 -86 l 422 -63 l 162 -63 l 120 -41 l 81 1059 m 156 0 l 359 0 l 363 45 q 527 -20 436 -20 q 640 8 587 -20 q 732 88 693 37 q 794 206 772 138 q 816 352 816 275 q 794 498 816 430 q 732 618 772 566 q 640 698 693 669 q 527 727 587 727 q 455 713 487 727 l 430 319 l 430 1055 l 118 1027 l 156 0 "},"D":{"x_min":76.390625,"x_max":1026.46875,"ha":1061,"o":"m 104 1000 q 409 1026 248 1026 q 614 1013 536 1026 q 744 974 693 1000 q 831 910 795 948 q 914 812 866 872 q 994 657 962 752 q 1026 454 1026 562 q 999 259 1026 351 q 916 95 972 166 q 773 -20 859 23 q 568 -69 687 -65 l 568 -70 q 514 -72 543 -72 q 457 -74 486 -73 q 402 -75 429 -75 q 354 -76 375 -76 q 307 -75 333 -76 q 256 -74 281 -75 q 206 -72 230 -73 q 163 -70 181 -72 l 125 -40 q 95 441 108 183 q 76 965 83 700 l 104 1000 m 111 965 q 129 458 118 700 q 158 -6 141 216 q 319 -11 233 -11 q 502 -6 404 -11 l 516 626 l 537 -5 q 722 36 643 -4 q 854 145 801 77 q 934 302 907 213 q 961 488 961 391 q 943 636 961 565 q 894 766 926 707 q 818 872 862 826 q 720 947 775 918 q 602 981 680 970 q 409 991 523 991 q 260 984 334 991 q 111 965 186 977 "},"z":{"x_min":75,"x_max":823.671875,"ha":845,"o":"m 791 738 l 823 708 q 675 406 743 540 q 548 170 607 272 l 693 186 l 723 147 l 691 -63 l 150 -63 l 106 -33 q 217 154 168 66 q 304 318 266 241 l 123 301 l 83 334 l 75 719 l 791 738 m 118 694 l 118 369 l 375 394 q 284 202 336 300 q 169 0 233 104 l 630 -15 l 652 147 l 430 126 q 740 711 563 338 l 118 694 "},"w":{"x_min":63.890625,"x_max":1065.359375,"ha":1099,"o":"m 445 751 l 462 725 l 701 752 l 719 725 l 1036 759 l 1065 720 q 973 284 1022 483 q 870 -75 925 84 l 304 -61 l 266 -30 q 159 296 211 112 q 63 718 108 480 l 445 751 m 105 686 q 193 300 145 469 q 290 2 240 131 l 545 -8 l 565 238 l 583 2 l 813 -8 q 909 323 865 141 q 993 720 954 505 l 711 688 l 668 220 l 668 713 l 455 688 l 412 220 l 412 713 l 105 686 "},"$":{"x_min":55.5625,"x_max":688.9375,"ha":686,"o":"m 481 909 q 557 890 519 904 q 637 854 595 876 l 688 820 l 516 570 q 595 467 568 519 q 623 358 623 415 q 610 284 623 322 q 574 211 597 245 q 518 152 551 177 q 448 116 486 126 l 477 -50 l 297 -65 l 258 -34 l 273 102 q 206 126 243 108 q 129 177 169 144 q 84 215 90 209 l 187 322 q 88 441 120 375 q 55 581 55 508 q 119 774 55 690 q 300 895 183 858 l 277 1054 l 456 1094 l 487 1054 l 481 909 m 500 245 q 543 315 529 277 q 558 393 558 354 q 535 489 558 443 q 468 572 512 536 l 298 393 l 602 833 q 511 869 559 858 q 415 880 463 880 l 420 1051 l 316 1027 l 338 872 q 231 827 277 857 q 154 758 186 797 q 106 672 122 719 q 90 577 90 626 q 128 438 90 502 q 241 329 166 373 l 136 218 q 220 175 175 187 q 315 162 266 162 l 297 2 l 406 12 l 379 172 q 500 245 451 193 "},"\\":{"x_min":12.5,"x_max":641.71875,"ha":607,"o":"m 238 1023 q 241 1016 240 1019 q 277 947 243 1012 q 359 764 312 882 q 453 520 405 647 q 549 260 501 393 q 641 -2 597 127 l 490 -98 l 452 -70 q 245 452 355 206 q 12 919 136 698 l 238 1023 m 61 904 q 470 -16 288 497 l 569 45 q 392 541 479 309 q 220 977 305 773 l 61 904 "},"’":{"x_min":63.890625,"x_max":361.140625,"ha":382,"o":"m 63 976 q 102 1048 63 1019 q 197 1077 141 1077 q 271 1060 238 1077 q 319 1015 304 1043 l 334 1000 q 361 943 358 976 l 361 941 q 344 887 361 912 q 299 842 327 862 q 231 808 270 822 q 148 788 193 794 l 116 820 q 109 819 113 819 l 97 908 q 63 976 63 934 m 98 976 q 127 929 98 948 q 197 911 156 911 q 212 912 208 911 q 145 897 190 897 l 134 897 l 140 858 q 250 899 205 868 q 295 976 295 930 l 295 977 q 265 1023 294 1004 q 197 1043 237 1043 q 127 1023 156 1043 q 98 976 98 1004 "},"~":{"x_min":79.171875,"x_max":782,"ha":833,"o":"m 79 530 q 185 601 129 579 q 294 623 241 623 q 360 614 329 623 q 420 595 391 605 q 475 575 450 584 q 523 566 501 566 l 529 566 q 593 588 558 569 q 666 640 629 607 q 782 443 669 636 q 670 377 730 404 q 559 351 611 351 q 515 356 537 351 l 513 356 q 470 370 493 362 q 422 387 447 379 q 371 402 397 395 q 320 408 345 408 q 279 397 301 408 q 231 359 258 387 l 79 530 m 487 420 q 525 416 505 416 q 620 436 570 416 q 708 486 669 456 q 684 536 695 511 q 658 586 672 562 q 529 531 601 536 l 523 531 q 470 541 497 531 q 416 560 444 550 q 358 579 388 570 q 294 588 327 588 q 203 574 247 588 q 126 527 159 559 q 162 484 145 505 q 197 438 179 462 q 238 466 216 458 q 286 473 261 473 q 337 467 311 473 q 390 452 363 461 q 441 435 416 444 q 487 420 465 426 "},"-":{"x_min":61.109375,"x_max":593.109375,"ha":622,"o":"m 563 538 l 593 500 l 566 341 l 106 341 l 68 372 l 61 509 l 563 538 m 91 486 l 100 400 l 505 400 l 522 502 l 91 486 "},"Q":{"x_min":58.34375,"x_max":1029.25,"ha":1064,"o":"m 1029 459 q 973 204 1029 319 q 826 15 918 88 l 870 1 l 900 -36 l 841 -229 l 595 -125 l 555 -76 q 389 -31 463 -68 q 256 62 315 4 l 255 63 q 111 250 163 138 q 58 494 58 361 q 95 706 58 607 q 195 879 131 805 q 345 996 259 954 q 527 1038 430 1038 q 716 991 625 1038 q 876 863 807 944 q 987 678 945 783 q 1029 459 1029 573 m 526 623 l 544 -12 q 626 0 587 -9 l 600 -73 l 787 -152 l 827 -20 l 694 25 q 802 100 752 52 q 888 207 852 147 q 943 341 923 268 q 963 494 963 413 q 929 693 963 600 q 836 854 895 786 q 697 963 776 923 q 527 1004 618 1004 q 359 963 437 1004 q 220 854 280 923 q 127 693 161 786 q 93 494 93 600 q 125 300 93 391 q 214 141 158 209 q 347 32 270 73 q 511 -12 423 -8 l 526 623 "},"M":{"x_min":73.609375,"x_max":1030.640625,"ha":1070,"o":"m 126 -4 q 109 223 118 98 q 94 486 101 348 q 82 772 87 625 q 73 1069 77 920 q 327 889 215 973 q 522 730 438 805 q 736 899 618 815 q 995 1065 854 983 l 1030 1025 q 1009 714 1020 869 q 987 416 998 559 q 964 145 976 272 q 943 -80 952 19 l 670 -63 l 632 -18 l 558 -126 l 448 11 l 448 -65 l 194 -65 l 126 -4 m 380 -6 l 380 169 l 523 -38 l 666 173 l 666 0 l 880 -13 q 921 438 901 186 q 961 1004 941 691 q 722 849 832 929 q 522 684 613 769 q 109 1004 356 837 q 129 456 116 705 q 161 0 143 206 l 380 -6 "},"C":{"x_min":63.890625,"x_max":1013.96875,"ha":1053,"o":"m 638 -88 q 420 -41 525 -88 q 237 84 316 5 q 111 267 158 163 q 63 484 63 370 q 106 696 63 597 q 225 870 150 795 q 400 986 300 944 q 613 1029 500 1029 q 809 991 713 1029 q 1013 852 904 954 q 993 585 1007 713 q 954 331 979 456 q 854 403 883 384 q 788 422 825 422 q 725 412 755 422 q 673 386 695 402 q 638 347 651 369 q 626 300 626 325 q 637 260 626 276 q 666 234 648 244 q 707 221 684 225 q 754 218 730 218 q 831 236 787 218 q 925 290 875 255 l 954 247 l 926 -13 q 789 -69 859 -50 q 648 -88 719 -88 l 638 -88 m 561 334 q 576 394 561 366 q 617 443 591 422 q 678 475 643 463 q 754 487 713 487 q 836 470 798 487 q 900 427 873 452 q 931 636 919 526 q 948 873 943 747 q 795 962 880 930 q 613 994 709 994 q 413 954 506 994 q 249 845 319 913 q 138 683 179 776 q 98 484 98 590 q 138 286 98 379 q 249 124 179 193 q 413 15 319 55 q 613 -23 506 -23 q 744 -6 682 -23 q 862 38 807 9 l 882 220 q 822 193 855 202 q 754 183 790 183 q 678 195 713 183 q 617 227 643 206 q 576 275 591 247 q 561 334 561 302 "},"L":{"x_min":73.609375,"x_max":757,"ha":779,"o":"m 531 1019 l 562 980 q 538 576 552 782 q 505 179 523 370 q 612 190 556 181 q 726 215 668 200 l 757 175 l 734 -72 l 161 -72 l 122 -41 q 106 197 113 70 q 92 459 98 325 q 81 729 86 593 q 73 994 76 865 l 531 1019 m 109 961 q 155 -6 122 443 l 672 -4 l 687 170 q 433 143 573 143 q 495 983 475 554 l 109 961 "},";":{"x_min":48.609375,"x_max":394.46875,"ha":413,"o":"m 66 12 q 105 84 66 55 q 200 113 144 113 q 274 96 241 113 q 334 45 306 79 q 363 -20 361 12 l 363 -22 q 347 -76 363 -51 q 302 -121 330 -101 q 234 -155 273 -141 q 151 -175 195 -169 q 112 -144 113 -144 l 100 -55 q 66 12 66 -26 m 48 468 q 61 513 48 491 q 94 550 73 534 q 143 576 115 566 q 205 586 172 586 q 294 564 255 586 q 363 506 333 543 q 394 433 394 469 q 381 389 394 409 q 348 354 369 369 q 300 331 327 340 q 240 322 272 322 q 169 334 201 322 q 108 370 137 347 q 63 416 79 393 q 48 468 48 440 m 83 468 q 118 411 83 434 q 205 387 154 387 q 293 411 256 387 q 329 468 329 434 q 293 526 329 501 q 205 551 256 551 q 118 526 154 551 q 83 468 83 501 m 101 12 q 130 -34 101 -15 q 200 -52 159 -52 q 215 -51 211 -52 q 148 -66 193 -66 l 137 -66 l 143 -105 q 253 -64 208 -95 q 298 12 298 -33 l 298 13 q 268 59 297 40 q 200 79 240 79 q 130 59 159 79 q 101 12 101 40 "},"!":{"x_min":63.890625,"x_max":470.875,"ha":515,"o":"m 109 12 q 138 76 109 47 l 118 90 q 101 290 109 181 q 86 516 93 400 q 73 754 79 633 q 63 993 68 876 l 440 1020 l 470 982 q 439 497 459 719 q 390 84 419 275 l 343 79 q 366 48 356 66 l 380 36 q 406 -22 406 9 q 396 -59 406 -41 q 368 -89 386 -76 q 327 -110 351 -102 q 277 -118 304 -118 q 218 -107 245 -118 q 173 -79 191 -97 l 159 -65 q 122 -31 136 -51 q 109 12 109 -11 m 100 961 q 150 127 113 494 l 329 147 q 404 983 383 497 l 100 961 m 144 12 q 173 -34 144 -15 q 243 -52 202 -52 q 312 -34 283 -52 q 341 12 341 -15 q 312 59 341 40 q 243 79 283 79 q 173 59 202 79 q 144 12 144 40 "}," ":{"x_min":0,"x_max":0,"ha":358},"X":{"x_min":50,"x_max":1098.703125,"ha":1108,"o":"m 501 1019 q 533 980 501 1015 q 544 938 538 959 q 556 893 550 916 q 574 945 566 920 q 588 994 581 970 l 1070 1020 l 1098 982 q 1011 822 1057 904 q 921 659 966 740 q 833 499 876 577 q 751 352 790 420 q 941 -48 822 179 l 623 -73 q 569 -16 576 -29 q 552 8 562 -4 q 534 -21 543 -6 q 518 -51 525 -36 l 170 -76 l 127 -45 q 254 170 198 72 q 347 351 309 269 q 198 650 272 491 q 50 993 125 809 l 501 1019 m 100 961 q 238 642 168 793 q 384 352 309 491 q 193 -6 301 172 l 465 12 q 494 62 480 37 q 523 113 508 87 q 563 52 543 81 q 604 -6 584 22 l 858 12 q 683 390 763 195 q 843 676 762 529 q 1011 983 923 823 l 615 961 q 582 855 600 908 q 547 750 565 802 q 476 983 509 863 l 100 961 "},"P":{"x_min":75,"x_max":1018.140625,"ha":1039,"o":"m 75 993 q 299 1016 198 1009 q 512 1023 400 1022 l 522 1023 q 854 937 732 1023 l 854 938 q 955 841 893 908 q 1018 607 1018 775 q 996 469 1018 536 q 931 350 975 402 q 821 265 887 297 q 665 233 755 233 q 602 236 636 233 q 526 247 568 240 q 488 -55 509 70 l 163 -73 l 125 -43 q 97 438 109 180 q 75 993 84 697 m 111 961 q 131 456 119 697 q 158 -6 143 216 l 427 8 q 494 791 470 268 l 500 312 q 630 298 568 298 q 774 328 713 298 q 874 406 834 358 q 933 516 913 454 q 952 641 952 577 q 845 904 952 819 q 527 988 738 988 l 512 988 q 304 981 404 987 q 111 961 204 975 "},"%":{"x_min":-41.671875,"x_max":977.859375,"ha":929,"o":"m 416 123 q 425 177 416 150 q 331 44 377 111 q 240 -91 286 -22 l 65 -1 l 23 31 q 163 243 93 137 q 305 455 233 350 q 240 445 276 445 q 140 470 190 445 q 49 536 90 494 q -16 634 8 577 q -41 755 -41 690 q -24 852 -41 807 q 24 935 -6 898 q 98 997 55 972 q 204 1025 141 1022 q 314 996 266 1029 q 401 921 362 963 q 462 828 440 879 q 484 720 484 777 l 484 716 q 597 875 543 800 q 702 1020 651 950 l 950 916 l 945 912 l 977 880 q 491 269 729 594 q 601 313 534 318 q 725 249 668 308 q 797 157 783 190 q 812 88 812 125 q 798 15 812 50 q 760 -45 784 -19 q 703 -86 736 -70 q 633 -101 670 -101 q 566 -87 597 -101 q 501 -46 536 -73 q 441 25 466 -19 q 416 123 416 69 m 715 977 q 406 541 565 773 q 75 45 248 309 l 195 -16 q 540 468 366 240 q 893 904 713 697 l 715 977 m -6 755 q 9 661 -6 705 q 54 583 26 616 q 122 530 83 550 q 205 511 161 511 q 288 530 250 511 q 356 583 327 550 q 402 661 386 616 q 419 755 419 705 q 404 845 419 802 q 362 921 388 888 q 300 974 336 954 q 223 998 265 994 l 195 643 l 190 998 q 112 975 148 995 q 50 922 76 955 q 8 847 23 890 q -6 755 -6 804 m 451 123 q 463 61 451 90 q 494 11 475 33 q 541 -23 513 -11 q 598 -36 568 -36 q 656 -23 629 -36 q 703 11 683 -11 q 735 61 723 33 q 747 123 747 90 q 736 181 747 154 q 709 229 726 208 q 667 263 691 250 q 615 281 643 277 l 597 26 l 573 280 q 486 226 520 270 q 451 123 451 181 "},"#":{"x_min":-12.5,"x_max":623.65625,"ha":610,"o":"m 50 672 l -12 763 l 100 763 l 72 1030 l 290 1061 l 319 1023 l 537 1062 l 568 1022 l 534 770 l 545 770 l 552 755 l 577 732 l 623 643 l 565 640 l 612 547 l 504 547 l 480 370 l 352 383 l 322 412 l 313 413 l 313 541 l 302 541 l 302 370 l 175 383 l 144 412 l 136 413 l 122 538 l 100 538 l 66 569 l 9 672 l 50 672 m 66 638 l 84 604 l 151 604 l 168 445 l 243 438 l 243 609 l 348 609 l 348 445 l 419 438 l 443 613 l 527 613 l 509 648 l 447 645 l 455 707 l 540 707 l 525 736 l 459 734 l 497 1020 l 351 1000 l 351 732 l 254 732 l 254 1020 l 109 1000 l 138 729 l 51 729 l 72 698 l 141 704 l 147 640 l 66 638 m 245 704 l 350 704 l 348 641 l 244 641 l 245 704 "},"_":{"x_min":-13.890625,"x_max":888.953125,"ha":833,"o":"m 833 -145 l 834 -154 l 865 -184 l 888 -279 l 26 -279 l -4 -248 l -13 -248 l 23 -145 l 833 -145 m 48 -180 l 36 -213 l 815 -213 l 807 -180 l 48 -180 "},"+":{"x_min":54.171875,"x_max":616.71875,"ha":639,"o":"m 462 701 l 493 662 l 479 538 l 587 550 l 616 511 l 588 337 l 458 337 l 440 200 l 280 200 l 241 230 l 219 341 l 106 341 l 68 372 l 54 523 l 187 523 l 166 661 l 462 701 m 205 630 l 227 486 l 91 486 l 100 404 l 243 404 l 270 266 l 379 266 l 397 408 l 527 408 l 544 511 l 406 498 l 423 661 l 205 630 "},"‚":{"x_min":55.5625,"x_max":352.8125,"ha":382,"o":"m 55 12 q 94 84 55 55 q 188 113 133 113 q 264 97 230 113 q 324 46 298 80 q 352 -20 350 12 l 352 -22 q 336 -76 352 -51 q 290 -121 319 -101 q 223 -155 262 -141 q 140 -175 184 -169 l 108 -143 q 104 -143 105 -143 q 101 -144 102 -144 l 88 -55 q 64 -24 73 -41 q 55 12 55 -6 m 90 12 q 119 -34 90 -15 q 188 -52 148 -52 q 204 -51 200 -52 q 137 -66 181 -66 l 126 -66 l 131 -105 q 242 -64 197 -95 q 287 12 287 -33 l 287 13 q 257 59 286 40 q 188 79 229 79 q 119 59 148 79 q 90 12 90 40 "},")":{"x_min":13.890625,"x_max":406.984375,"ha":433,"o":"m 206 1104 q 238 1065 208 1101 q 406 373 406 704 q 279 -220 406 91 l 143 -179 l 102 -147 q 225 398 225 140 q 13 1079 225 722 l 206 1104 m 72 1051 q 259 398 259 732 q 148 -125 259 141 l 227 -148 q 341 408 341 131 q 186 1066 341 732 l 72 1051 "},"'":{"x_min":87.5,"x_max":322.25,"ha":299,"o":"m 291 1080 l 322 1041 q 311 967 318 1008 q 298 883 305 926 q 285 800 291 840 q 273 732 279 761 l 133 732 l 94 762 q 91 814 93 784 q 89 875 90 844 q 88 938 88 907 q 87 997 87 969 l 87 1079 l 291 1080 m 122 1044 l 122 997 q 123 893 122 943 q 127 797 125 843 l 212 797 q 232 917 223 855 q 251 1045 241 979 l 122 1044 "},"T":{"x_min":47.21875,"x_max":840.34375,"ha":856,"o":"m 809 1026 l 840 987 q 822 683 834 823 q 791 420 811 543 q 673 462 720 461 q 652 164 663 293 q 630 -51 641 36 l 312 -75 l 273 -44 q 252 175 262 45 q 233 447 241 304 q 170 434 202 441 q 104 415 138 426 l 65 444 q 52 650 56 544 q 47 868 47 755 l 47 934 q 47 976 47 954 q 48 1012 48 998 l 809 1026 m 83 973 q 82 920 83 945 q 81 868 81 894 q 86 668 81 762 q 97 490 90 573 q 263 522 179 516 q 305 -6 281 198 l 568 12 q 609 526 591 181 q 623 527 616 527 q 661 527 630 527 q 733 504 693 527 q 759 724 748 604 q 773 990 769 844 l 83 973 "},"a":{"x_min":26.390625,"x_max":655.609375,"ha":708,"o":"m 26 220 q 56 361 26 298 q 131 468 87 423 l 238 744 q 330 758 295 758 q 445 732 387 758 q 550 649 502 707 q 626 498 597 591 q 655 270 655 405 q 649 119 655 204 q 629 -73 643 34 l 430 -54 l 416 -40 q 354 -76 386 -63 q 287 -88 323 -88 q 151 -39 209 -88 q 59 74 93 9 q 26 220 26 138 m 61 220 q 76 125 61 169 q 118 47 91 80 q 179 -4 144 13 q 252 -23 213 -23 q 325 -6 293 -23 q 390 41 358 11 l 401 270 l 423 8 l 568 -5 q 584 161 579 84 q 590 305 590 238 q 567 514 590 433 q 508 642 544 595 q 425 706 472 688 q 330 723 377 723 q 263 715 298 723 l 184 522 q 243 534 215 534 q 372 416 325 534 q 252 466 318 466 q 179 447 213 466 q 118 394 144 427 q 76 316 91 361 q 61 220 61 272 "},"—":{"x_min":54.171875,"x_max":1047.3125,"ha":1074,"o":"m 1016 537 l 1015 530 l 1047 498 l 1020 341 l 106 341 l 76 372 l 68 372 l 54 537 l 1016 537 m 91 486 l 100 400 l 959 400 l 976 502 l 91 486 "},"=":{"x_min":81.953125,"x_max":622.265625,"ha":665,"o":"m 586 643 l 586 634 l 622 604 l 622 420 l 591 412 l 616 381 l 616 229 l 112 229 l 81 259 l 81 420 l 115 420 l 86 448 l 86 632 l 586 643 m 115 594 l 115 487 l 552 487 l 552 607 l 115 594 m 109 386 l 109 283 l 555 283 l 555 386 l 109 386 "},"N":{"x_min":76.390625,"x_max":850.0625,"ha":897,"o":"m 108 0 q 94 225 100 101 q 84 488 88 350 q 78 772 80 626 q 76 1063 76 918 l 493 705 l 493 995 l 819 1030 l 850 991 q 841 680 847 836 q 829 379 836 525 q 816 105 823 234 q 801 -126 809 -23 l 381 116 l 381 -77 l 175 -61 l 108 0 m 329 -9 l 329 204 l 740 -40 q 766 422 755 166 q 784 991 777 679 l 540 963 l 540 630 l 111 990 q 120 452 112 697 q 143 4 127 208 l 329 -9 "},"2":{"x_min":40.28125,"x_max":791.734375,"ha":815,"o":"m 40 845 q 212 970 125 930 q 381 1009 300 1009 q 530 975 458 1009 q 659 882 602 941 q 750 741 715 823 q 791 544 786 659 q 772 420 791 479 q 722 313 754 362 q 650 227 691 265 q 565 166 609 190 q 670 187 612 175 l 697 147 l 697 -61 l 159 -61 l 120 -30 q 120 -15 120 -26 q 119 5 119 -4 l 119 34 q 137 158 119 108 q 183 242 155 208 q 243 297 211 276 q 302 334 275 318 q 348 363 330 350 q 366 397 366 377 l 366 400 q 337 406 354 402 q 312 409 320 409 q 211 338 270 409 l 173 365 l 40 845 m 190 437 q 277 475 220 475 q 369 453 337 475 q 401 397 401 431 q 383 347 401 366 q 337 313 365 329 q 277 279 309 297 q 218 231 245 261 q 172 154 190 201 q 154 36 154 108 q 154 20 154 29 q 155 4 155 12 l 632 -4 l 634 143 q 484 118 559 127 q 331 102 408 108 q 330 120 330 109 q 363 171 330 155 q 454 202 397 187 q 551 250 502 216 q 638 331 600 283 q 702 443 677 380 q 726 579 726 506 q 693 754 722 684 q 617 872 663 823 q 510 948 570 922 q 381 975 450 975 q 229 941 306 975 q 79 834 152 908 l 190 437 "},"j":{"x_min":-12.5,"x_max":479.203125,"ha":525,"o":"m 69 932 q 84 993 69 965 q 125 1043 98 1022 q 185 1076 151 1063 q 259 1088 219 1088 q 359 1065 315 1088 q 427 1002 404 1041 l 437 994 q 479 897 479 952 q 464 837 479 865 q 425 789 450 809 q 366 757 400 769 q 294 745 333 745 q 213 760 250 745 q 150 801 176 775 l 141 808 q 88 861 108 830 q 69 932 69 893 m 95 709 l 427 744 l 458 705 l 429 -31 q 411 -174 426 -106 q 371 -297 397 -241 q 306 -397 345 -354 q 213 -468 266 -441 l 29 -336 l -12 -301 q 63 -229 37 -261 q 100 -166 88 -197 q 111 -103 111 -136 q 112 -30 112 -70 q 112 1 112 -13 q 111 36 112 18 l 95 709 m 145 37 q 147 2 147 19 q 147 -30 147 -13 q 145 -111 147 -75 q 132 -181 143 -148 q 102 -242 122 -213 q 45 -300 81 -270 l 181 -397 q 259 -336 226 -375 q 315 -245 293 -297 q 349 -129 337 -193 q 363 4 361 -66 l 391 705 l 130 677 l 145 37 m 104 932 q 116 884 104 907 q 150 845 129 862 q 199 820 170 829 q 259 811 227 811 q 369 845 325 811 q 413 932 413 880 q 402 979 413 957 q 369 1018 390 1001 q 320 1044 348 1034 q 259 1054 291 1054 q 199 1044 227 1054 q 150 1018 170 1034 q 116 979 129 1001 q 104 932 104 957 "},"Z":{"x_min":70.84375,"x_max":948.6875,"ha":974,"o":"m 918 1011 l 918 1009 l 948 975 q 809 534 872 720 q 695 220 747 347 l 800 236 l 830 197 l 793 -56 l 176 -56 l 136 -26 q 211 177 175 81 q 283 354 247 272 l 76 343 l 70 991 l 918 1011 m 113 958 l 116 411 l 355 423 q 184 6 268 241 l 732 -15 l 759 195 l 593 172 q 872 977 701 413 l 113 958 "},"u":{"x_min":79.171875,"x_max":752.84375,"ha":800,"o":"m 233 -33 q 151 55 181 1 q 104 172 120 109 q 84 304 88 236 q 79 437 79 373 l 79 458 q 83 588 80 526 q 93 709 86 650 l 425 748 l 448 715 l 722 744 l 752 705 l 705 -76 l 445 -63 q 361 -86 413 -86 q 350 -85 355 -86 q 338 -84 345 -84 l 336 -84 q 238 -38 284 -84 l 233 -33 m 304 -19 q 316 -20 311 -19 q 326 -20 320 -20 q 388 -7 365 -20 q 431 37 411 5 l 437 0 l 641 0 l 684 705 l 427 677 l 391 165 l 391 709 l 125 677 q 117 575 119 630 q 113 458 115 520 l 113 437 q 117 345 113 395 q 129 243 120 294 q 152 145 138 193 q 187 61 166 98 q 236 2 208 25 q 301 -19 265 -19 l 304 -19 l 304 -19 "},"1":{"x_min":65.28125,"x_max":607,"ha":636,"o":"m 576 1027 l 607 988 q 591 720 600 857 q 571 450 581 583 q 550 188 561 316 q 527 -51 538 61 l 209 -75 l 170 -44 q 156 165 162 50 q 147 390 151 280 l 130 388 l 65 419 l 65 990 l 576 1027 m 125 958 l 125 456 l 180 461 q 188 222 183 338 q 202 -6 194 105 l 465 12 q 540 990 511 466 l 125 958 "},"›":{"x_min":80.5625,"x_max":719.5,"ha":757,"o":"m 687 466 l 687 459 l 719 429 l 719 252 l 198 48 l 166 79 l 155 76 l 155 258 l 250 287 l 119 323 l 90 352 l 80 355 l 108 726 l 687 466 m 140 673 l 116 380 l 413 302 l 193 233 l 193 126 l 652 306 l 652 444 l 140 673 "},"k":{"x_min":79.171875,"x_max":808.390625,"ha":832,"o":"m 79 1061 l 466 1094 l 497 1055 l 475 745 q 545 758 508 758 q 652 730 604 758 q 732 655 700 702 l 733 654 q 788 571 768 619 q 808 469 808 523 q 768 328 808 390 q 665 238 727 266 q 721 120 688 180 q 804 -1 754 61 q 650 -50 725 -23 q 504 -112 576 -76 q 446 -39 456 -61 q 426 2 436 -18 l 423 -63 l 161 -63 l 111 -8 l 79 1061 m 155 0 l 359 0 l 381 366 q 413 157 393 261 q 481 -37 433 54 q 597 11 540 -9 q 716 50 654 33 q 644 163 675 102 q 590 291 613 225 q 700 366 657 308 q 743 504 743 425 q 727 589 743 550 q 685 659 712 629 q 622 706 658 688 q 545 723 586 723 q 465 704 501 723 q 401 654 429 686 l 429 1057 l 115 1029 l 155 0 "},"€":{"x_min":63.890625,"x_max":1013.96875,"ha":1053,"o":"m 784 422 q 697 401 734 422 l 858 402 q 788 422 823 420 l 784 422 l 784 422 m 638 -88 q 420 -41 525 -88 q 237 84 316 5 q 111 267 158 163 q 63 484 63 370 q 106 696 63 597 q 225 870 150 795 q 400 986 300 944 q 613 1029 500 1029 q 809 991 713 1029 q 983 888 904 954 l 1013 852 q 995 608 1007 726 q 926 -13 983 490 q 789 -69 859 -50 q 648 -88 719 -88 l 638 -88 m 561 320 l 900 320 l 905 369 l 568 366 q 634 455 586 423 q 750 487 683 487 l 754 487 q 841 469 808 486 q 900 427 873 452 q 931 636 919 526 q 948 873 943 747 q 795 962 880 930 q 613 994 709 994 q 413 954 506 994 q 249 845 319 913 q 138 683 179 776 q 98 484 98 590 q 138 286 98 379 q 249 124 179 193 q 413 15 319 55 q 613 -23 506 -23 q 744 -6 682 -23 q 862 38 807 9 l 882 179 q 813 150 854 159 q 734 140 773 140 q 643 166 686 140 q 577 237 600 193 l 890 231 l 895 279 l 565 275 q 561 313 561 293 l 561 320 "},"<":{"x_min":58.34375,"x_max":645.890625,"ha":696,"o":"m 641 761 l 641 340 l 536 319 l 613 291 l 645 254 l 645 83 l 100 287 l 58 319 l 58 501 l 607 802 l 641 761 m 572 744 l 95 480 l 95 344 l 579 162 l 579 266 l 338 354 l 576 400 l 572 744 "},"t":{"x_min":27.78125,"x_max":615.328125,"ha":569,"o":"m 113 743 l 113 1061 l 500 1094 l 530 1055 l 509 755 l 587 755 l 615 716 l 548 568 l 497 566 l 455 -63 l 194 -63 l 148 -30 l 131 563 l 68 563 l 27 594 l 66 743 l 113 743 m 93 708 l 72 630 l 188 630 l 188 0 l 391 0 l 434 632 l 494 633 l 533 716 l 440 716 l 462 1057 l 162 1029 l 162 709 l 93 708 "},"W":{"x_min":19.453125,"x_max":1062.578125,"ha":1051,"o":"m 394 1020 l 426 982 l 444 897 l 543 1079 l 632 907 l 651 994 l 1032 1029 q 1031 1025 1032 1026 q 1062 990 1030 1023 q 979 413 1026 679 q 873 -75 932 148 l 632 -61 l 594 -30 l 544 56 l 468 -61 l 201 -61 l 162 -30 q 83 447 119 194 q 19 987 47 701 l 394 1020 m 56 955 q 115 463 81 700 q 193 2 150 226 l 416 -8 l 520 169 l 615 2 l 816 -8 q 913 447 869 198 q 993 990 958 695 l 680 961 l 638 772 l 540 1000 l 416 772 l 368 983 l 56 955 "},"v":{"x_min":58.34375,"x_max":802.84375,"ha":832,"o":"m 440 751 l 456 725 l 773 759 q 802 720 772 757 q 714 290 765 491 q 608 -75 663 90 l 276 -63 q 147 310 197 122 q 58 718 98 498 l 440 751 m 100 686 q 181 313 136 484 q 283 2 227 141 l 551 -8 q 649 331 602 147 q 730 720 695 515 l 450 688 l 406 220 l 406 713 l 100 686 "},">":{"x_min":80.5625,"x_max":719.5,"ha":757,"o":"m 687 466 l 719 429 l 719 252 l 198 48 l 155 76 l 155 258 l 250 287 l 119 323 l 80 355 l 108 726 l 687 466 m 140 673 l 116 380 l 413 302 l 193 233 l 193 126 l 652 306 l 652 444 l 140 673 "},"s":{"x_min":68.0625,"x_max":616.71875,"ha":638,"o":"m 312 -76 q 194 -43 254 -76 q 77 52 134 -9 l 172 161 q 93 277 119 212 q 68 412 68 343 q 94 546 68 484 q 164 653 120 608 q 264 724 208 698 q 381 750 320 750 q 481 732 429 750 q 586 673 533 713 l 616 637 l 616 612 l 473 391 q 537 289 516 343 q 558 187 558 236 q 542 92 558 138 q 494 8 526 45 l 493 6 q 409 -55 456 -34 q 312 -76 361 -76 m 436 62 q 479 136 465 94 q 493 222 493 177 q 476 316 493 270 q 425 397 459 361 l 272 223 l 551 657 q 468 701 511 687 q 381 715 425 715 q 275 691 326 715 q 186 627 225 668 q 124 532 147 587 q 101 413 101 477 q 131 275 101 341 q 220 162 162 208 l 125 54 q 196 4 156 20 q 277 -11 236 -11 q 363 6 322 -11 q 436 62 404 25 "},"B":{"x_min":76.390625,"x_max":1016.75,"ha":1056,"o":"m 105 995 q 297 1016 197 1009 q 511 1023 398 1022 l 520 1023 q 820 967 740 1018 q 958 845 900 916 q 1016 607 1016 775 q 911 329 1016 440 q 958 181 958 265 q 884 -14 955 48 q 687 -79 813 -77 q 560 -79 607 -79 q 447 -79 513 -80 q 336 -76 381 -77 q 245 -73 290 -75 q 162 -70 201 -72 l 123 -40 q 95 440 108 183 q 76 961 83 697 l 105 995 m 111 961 q 156 -6 125 437 q 463 -15 323 -15 l 504 616 l 500 -15 q 663 -10 591 -15 q 785 17 734 -5 q 863 86 836 40 q 893 218 890 133 q 878 297 893 259 q 836 366 863 336 l 844 375 q 951 641 951 481 q 841 904 951 820 q 520 988 732 988 l 511 988 q 302 981 402 987 q 111 961 202 975 "},"…":{"x_min":52.78125,"x_max":1058.421875,"ha":1090,"o":"m 409 12 q 448 84 409 54 q 543 113 487 113 q 618 95 584 113 q 679 43 651 76 q 707 -22 707 9 q 696 -59 707 -41 q 668 -89 686 -76 q 627 -110 651 -102 q 577 -118 604 -118 q 518 -107 545 -118 q 463 -74 491 -97 q 422 -31 436 -51 q 409 12 409 -11 m 52 12 q 91 84 52 54 q 186 113 130 113 q 261 95 227 113 q 322 43 294 76 q 350 -22 350 9 q 339 -59 350 -41 q 311 -89 329 -76 q 270 -110 294 -102 q 220 -118 247 -118 q 161 -107 188 -118 q 106 -74 134 -97 q 65 -31 79 -51 q 52 12 52 -11 m 761 12 q 800 84 761 54 q 894 113 838 113 q 969 95 936 113 q 1030 43 1002 76 q 1058 -22 1058 9 q 1048 -59 1058 -41 q 1020 -89 1037 -76 q 979 -110 1002 -102 q 929 -118 955 -118 q 870 -107 897 -118 q 815 -74 843 -97 q 774 -31 787 -51 q 761 12 761 -11 m 795 12 q 825 -34 795 -15 q 894 -52 854 -52 q 963 -34 934 -52 q 993 12 993 -15 q 963 59 993 40 q 894 79 934 79 q 825 59 854 79 q 795 12 795 40 m 87 12 q 116 -34 87 -15 q 186 -52 145 -52 q 255 -34 226 -52 q 284 12 284 -15 q 255 59 284 40 q 186 79 226 79 q 116 59 145 79 q 87 12 87 40 m 444 12 q 473 -34 444 -15 q 543 -52 502 -52 q 612 -34 583 -52 q 641 12 641 -15 q 612 59 641 40 q 543 79 583 79 q 473 59 502 79 q 444 12 444 40 "},"?":{"x_min":27.78125,"x_max":809.78125,"ha":821,"o":"m 218 12 q 243 72 218 44 l 241 72 q 240 86 241 76 q 240 106 240 97 l 240 134 q 247 211 240 180 q 266 265 255 243 q 291 304 277 288 q 318 331 305 319 l 320 334 q 337 352 330 344 q 344 372 344 361 l 344 375 q 281 383 316 383 q 166 361 237 383 l 134 391 q 131 391 133 391 q 129 390 130 390 l 27 848 q 125 919 77 888 q 220 970 172 950 q 318 1002 268 991 q 423 1012 368 1012 q 571 975 501 1012 q 694 878 641 938 q 778 740 747 818 q 809 581 809 662 q 797 479 809 530 q 759 382 784 429 q 693 297 733 336 q 600 230 654 258 q 506 164 533 197 q 480 101 480 131 q 481 87 480 95 q 488 54 481 79 l 473 52 q 476 47 473 50 l 488 36 q 515 -22 515 9 q 504 -59 515 -41 q 477 -89 494 -76 q 436 -110 459 -102 q 386 -118 412 -118 q 327 -107 354 -118 q 281 -79 300 -97 l 268 -65 q 231 -31 244 -51 q 218 12 218 -11 m 154 434 q 200 445 177 441 q 247 448 223 448 q 339 429 300 448 q 379 372 379 409 q 363 328 379 344 q 327 291 347 312 q 290 234 306 269 q 275 134 275 200 q 275 121 275 127 q 276 108 276 115 l 416 116 q 415 136 415 122 q 445 215 415 175 q 551 293 476 255 q 638 356 602 319 q 698 436 675 393 q 733 525 722 479 q 744 618 744 572 q 721 751 744 686 q 656 866 698 816 q 554 947 613 916 q 422 977 494 977 q 235 941 322 977 q 65 834 148 904 l 154 434 m 252 12 q 281 -34 252 -15 q 351 -52 311 -52 q 420 -34 391 -52 q 450 12 450 -15 q 420 59 450 40 q 351 79 391 79 q 281 59 311 79 q 252 12 252 40 "},"H":{"x_min":73.609375,"x_max":927.859375,"ha":970,"o":"m 476 1020 l 500 995 l 897 1022 q 896 1018 897 1019 q 895 1013 895 1016 l 927 983 q 910 697 919 840 q 891 418 901 554 q 872 159 882 283 q 854 -69 862 34 l 545 -65 l 494 -34 l 494 287 l 469 279 l 469 -80 l 173 -80 l 134 -50 q 118 177 126 54 q 103 432 111 301 q 88 698 95 563 q 73 961 80 833 l 476 1029 l 476 1020 m 522 961 l 522 523 l 440 461 l 440 990 l 109 954 q 137 437 123 677 q 166 -13 151 197 l 416 -4 l 416 330 l 540 404 l 540 0 l 791 -4 q 827 452 809 206 q 861 984 844 697 l 522 961 "},"c":{"x_min":69.453125,"x_max":729.21875,"ha":728,"o":"m 543 184 q 502 177 520 184 q 476 158 484 169 q 490 156 483 156 q 505 156 497 156 q 579 175 525 156 q 543 184 552 184 m 433 -98 q 304 -63 369 -98 q 186 29 238 -29 q 102 169 134 88 q 69 341 69 250 q 95 501 69 426 q 168 632 122 576 q 276 720 213 687 q 409 752 338 752 q 499 742 455 752 q 580 713 543 732 q 647 669 618 694 q 698 615 677 644 l 701 612 q 729 580 716 597 l 619 188 q 654 202 644 198 l 680 159 l 570 -69 q 506 -91 536 -84 q 444 -98 476 -98 l 433 -98 m 405 180 q 438 229 408 208 q 508 250 468 250 q 558 238 531 250 l 661 608 q 561 686 629 654 q 409 718 493 718 q 290 688 345 718 q 193 607 234 658 q 127 488 151 556 q 104 341 104 419 q 127 195 104 263 q 193 75 151 126 q 290 -4 234 25 q 409 -33 345 -33 q 513 -11 463 -33 l 584 137 q 543 125 563 129 q 505 122 523 122 q 436 138 463 122 q 405 180 408 155 "},"&":{"x_min":61.109375,"x_max":805.625,"ha":817,"o":"m 380 -84 q 272 -55 329 -84 q 169 24 216 -26 q 91 142 122 75 q 61 284 61 209 q 113 456 61 383 q 262 559 166 529 q 233 732 243 647 q 224 893 223 818 q 225 982 225 968 q 226 1004 226 995 l 652 1023 l 682 984 q 618 691 634 827 l 648 657 l 777 340 q 672 194 737 261 q 728 67 695 131 q 805 -63 761 2 l 593 -86 q 533 -33 538 -38 q 469 -70 505 -56 q 390 -84 433 -84 l 380 -84 m 618 601 q 550 483 595 529 q 545 535 547 509 q 544 588 544 561 q 605 987 544 776 l 259 970 q 258 783 258 954 q 372 320 258 612 q 318 422 341 370 q 275 527 294 475 q 143 444 191 509 q 95 286 95 379 q 117 168 95 223 q 175 70 138 112 q 257 4 211 29 q 355 -19 304 -19 q 445 2 405 -19 q 515 61 486 23 q 537 16 525 37 q 568 -19 550 -4 l 718 -4 q 568 356 608 163 l 618 252 q 709 376 669 301 l 618 601 "},"I":{"x_min":70.84375,"x_max":561.15625,"ha":596,"o":"m 530 1019 l 561 980 q 543 716 552 851 q 524 447 534 580 q 502 188 513 315 q 479 -51 491 61 l 161 -75 l 122 -44 q 106 193 113 66 q 91 454 98 320 q 79 725 84 588 q 70 994 75 862 l 530 1019 m 106 961 q 125 456 113 697 q 154 -6 137 216 l 416 12 q 459 481 440 240 q 494 983 479 722 l 106 961 "},"•":{"x_min":77.78125,"x_max":708.390625,"ha":746,"o":"m 77 466 q 101 587 77 530 q 165 686 125 644 q 261 753 206 729 q 377 777 315 777 q 514 743 452 777 q 616 652 576 709 l 618 652 q 684 554 659 611 q 708 431 708 497 q 684 312 708 368 q 620 215 661 256 q 527 149 580 173 q 412 125 473 125 q 291 152 351 125 q 183 226 230 179 q 106 335 136 273 q 77 466 77 397 m 112 466 q 133 359 112 409 q 190 270 154 308 q 275 211 226 233 q 377 190 323 190 q 480 211 431 190 q 565 270 529 233 q 622 359 601 308 q 643 466 643 409 q 622 574 643 523 q 565 662 601 625 q 480 721 529 700 q 377 743 431 743 q 275 721 323 743 q 190 662 226 700 q 133 574 154 625 q 112 466 112 523 "},"G":{"x_min":63.890625,"x_max":1040.359375,"ha":1075,"o":"m 626 300 q 631 265 626 280 q 661 240 636 250 q 653 292 658 263 q 641 352 648 320 q 626 300 626 331 m 791 422 q 726 412 755 422 q 675 387 697 402 l 894 380 q 841 410 866 398 q 791 422 815 422 m 1015 852 q 961 379 1000 597 l 1011 377 l 1040 338 q 994 119 1016 226 q 955 -70 972 12 q 861 -81 922 -77 q 712 -86 800 -84 l 694 -86 q 441 -50 529 -86 q 286 39 354 -13 q 168 161 218 93 q 91 312 119 230 q 63 484 63 394 l 63 490 q 107 700 63 602 q 226 871 151 798 q 400 986 301 944 q 608 1029 498 1029 q 811 992 716 1029 q 1015 852 905 955 m 561 334 q 576 394 561 366 q 617 443 591 422 q 679 475 643 463 q 757 487 715 487 q 836 470 800 487 q 900 427 873 452 q 929 627 916 516 q 948 873 941 738 q 795 963 880 932 q 608 994 709 994 q 411 954 504 994 q 250 845 319 913 q 139 683 180 776 q 98 484 98 590 q 121 331 98 404 q 186 199 144 259 q 285 91 227 138 q 420 11 343 44 q 659 -20 498 -20 l 677 -20 q 817 -16 763 -19 q 894 -9 870 -13 q 929 159 911 70 q 968 344 948 247 l 680 352 q 701 193 700 262 q 628 220 655 204 q 586 254 601 236 q 566 293 570 273 q 561 334 561 313 "},"(":{"x_min":63.890625,"x_max":452.8125,"ha":433,"o":"m 426 1079 l 452 1041 q 245 363 245 690 q 366 -179 245 108 l 230 -220 l 193 -191 q 95 115 127 -34 q 63 408 63 265 q 233 1104 63 741 l 426 1079 m 254 1066 q 98 408 98 732 q 212 -148 98 131 l 291 -125 q 180 398 180 141 q 368 1051 180 732 l 254 1066 "},"`":{"x_min":169.453125,"x_max":637.546875,"ha":833,"o":"m 608 1098 l 605 1091 l 637 1061 l 598 965 l 211 1051 l 181 1080 l 169 1083 l 262 1259 l 608 1098 m 277 1213 l 222 1107 l 545 1034 l 563 1080 l 277 1213 "},"U":{"x_min":50,"x_max":905.625,"ha":925,"o":"m 555 988 l 551 926 l 875 952 l 905 913 q 896 691 901 802 q 886 473 891 580 q 873 267 880 366 q 858 80 866 168 q 795 16 834 48 q 707 -40 757 -15 q 602 -83 658 -66 q 488 -100 545 -100 q 368 -79 426 -100 q 262 -11 311 -59 q 194 54 226 15 q 138 149 162 94 q 99 277 115 204 q 77 441 83 350 q 72 539 75 479 q 65 673 69 600 q 58 827 62 747 q 50 986 54 908 l 525 1027 l 555 988 m 545 891 l 563 259 q 565 243 565 254 q 516 190 565 193 l 513 190 q 466 247 466 190 l 466 302 q 472 609 466 438 q 488 990 477 780 l 86 954 q 100 691 94 818 q 112 443 105 563 q 152 213 120 305 q 229 66 183 122 q 334 -11 276 11 q 452 -34 391 -34 q 559 -20 506 -34 q 656 17 611 -5 q 738 69 702 40 q 794 126 773 98 q 820 497 809 301 q 838 915 832 693 l 545 891 "},"F":{"x_min":76.390625,"x_max":937.578125,"ha":945,"o":"m 907 1027 l 937 988 q 918 836 929 915 q 895 682 907 758 q 873 534 884 605 q 852 406 862 463 l 590 415 l 597 409 l 632 220 l 468 205 l 443 -84 l 163 -84 l 125 -54 q 107 197 115 65 q 93 466 100 329 q 82 739 87 602 q 76 1005 77 876 l 907 1027 m 111 972 q 156 -19 119 456 l 380 -16 l 405 268 l 561 283 l 538 402 l 412 351 l 425 486 l 791 473 q 830 716 811 587 q 868 991 850 844 l 111 972 "},"r":{"x_min":77.78125,"x_max":669.5,"ha":663,"o":"m 77 709 l 413 744 l 412 736 q 466 745 437 745 q 547 722 511 745 q 608 663 584 700 l 613 658 q 654 597 638 632 q 669 522 669 562 q 656 451 669 484 q 620 393 643 418 q 566 353 597 368 q 501 338 536 338 q 461 340 483 338 q 413 345 440 341 l 397 -63 l 134 -63 l 102 -26 l 77 709 m 130 0 l 356 0 l 356 580 l 375 412 q 466 404 422 404 q 520 416 495 404 q 564 448 545 427 q 593 497 583 469 q 604 556 604 525 q 593 616 604 587 q 564 665 583 644 q 520 698 545 686 q 466 711 495 711 q 416 700 440 711 q 373 670 391 690 l 376 705 l 113 677 l 130 0 "},":":{"x_min":48.609375,"x_max":394.46875,"ha":417,"o":"m 66 12 q 105 84 66 54 q 200 113 144 113 q 275 95 241 113 q 323 48 308 76 l 337 36 q 363 -22 363 9 q 353 -59 363 -41 q 325 -89 343 -76 q 284 -110 308 -102 q 234 -118 261 -118 q 175 -107 202 -118 q 120 -74 148 -97 q 79 -31 93 -51 q 66 12 66 -11 m 48 468 q 61 513 48 491 q 94 550 73 534 q 143 576 115 566 q 205 586 172 586 q 294 564 255 586 q 351 511 333 543 l 363 500 q 394 433 394 469 q 381 389 394 409 q 348 354 369 369 q 300 331 327 340 q 240 322 272 322 q 169 334 201 322 q 108 370 137 347 q 63 416 79 393 q 48 468 48 440 m 83 468 q 118 411 83 434 q 205 387 154 387 q 293 411 256 387 q 329 468 329 434 q 293 526 329 501 q 205 551 256 551 q 118 526 154 551 q 83 468 83 501 m 101 12 q 130 -34 101 -15 q 200 -52 159 -52 q 269 -34 240 -52 q 298 12 298 -15 q 269 59 298 40 q 200 79 240 79 q 130 59 159 79 q 101 12 101 40 "},"x":{"x_min":63.890625,"x_max":819.515625,"ha":845,"o":"m 76 4 q 166 131 125 68 q 252 273 208 194 q 150 472 195 358 q 63 708 105 586 l 381 743 q 420 677 418 684 q 429 709 426 702 l 791 747 l 819 707 q 709 468 765 580 q 593 259 652 355 q 681 93 633 176 q 787 -77 729 9 l 505 -65 l 469 -34 q 449 -11 459 -23 q 427 13 438 0 q 394 -31 411 -9 q 361 -76 377 -52 l 147 -65 l 76 4 m 312 -9 q 356 47 334 18 q 400 109 377 77 q 442 54 420 81 q 486 0 463 26 l 694 -9 q 523 294 604 125 q 530 306 525 298 q 640 500 588 401 q 736 705 691 600 l 456 677 q 438 611 448 644 q 416 543 427 577 q 358 705 384 622 l 111 677 q 193 472 147 572 q 293 276 238 373 q 113 0 202 112 l 312 -9 "},"*":{"x_min":40.28125,"x_max":825.0625,"ha":829,"o":"m 559 997 l 590 957 l 559 732 l 686 812 l 825 566 l 602 501 l 727 336 l 519 265 l 481 294 l 443 369 l 408 258 l 162 370 l 243 483 l 80 502 l 40 533 l 108 750 l 284 682 l 177 927 l 559 997 m 226 901 l 350 620 l 130 704 l 86 563 l 323 536 l 216 387 l 354 333 l 412 509 l 500 337 l 643 386 l 516 552 l 747 620 l 673 761 l 479 637 l 519 954 l 226 901 "},"V":{"x_min":2.78125,"x_max":902.84375,"ha":871,"o":"m 408 1023 l 438 984 l 443 994 l 873 1033 l 902 994 q 814 675 858 830 q 729 381 770 519 q 652 127 688 244 q 584 -75 615 11 l 306 -61 l 269 -30 q 120 461 186 206 q 2 995 55 716 l 408 1023 m 45 963 q 156 460 94 698 q 294 2 218 222 l 529 -8 q 665 414 591 165 q 827 994 738 663 l 473 962 l 429 734 l 379 987 l 45 963 "},"h":{"x_min":79.171875,"x_max":758.390625,"ha":792,"o":"m 79 1061 l 466 1094 l 497 1055 l 476 752 q 525 761 498 758 q 612 736 573 761 q 684 673 651 712 q 738 584 718 634 q 758 475 758 533 q 737 247 758 380 q 680 -54 716 113 l 416 -79 l 412 -63 l 161 -63 l 113 4 l 79 1061 m 155 0 l 359 0 l 411 441 l 411 -11 l 619 8 q 673 288 655 161 q 691 502 691 415 q 680 586 691 545 q 647 658 669 627 q 595 707 626 688 q 526 726 565 726 q 402 666 454 725 l 429 1057 l 115 1029 l 155 0 "},"0":{"x_min":59.734375,"x_max":897.296875,"ha":933,"o":"m 59 481 q 90 691 59 593 q 177 861 122 788 q 305 977 231 934 q 462 1019 379 1019 q 621 974 543 1019 q 761 851 700 929 q 859 669 822 773 q 897 447 897 565 q 867 249 897 341 q 785 86 837 156 q 662 -29 733 15 q 511 -79 591 -73 q 371 -52 430 -86 q 258 26 312 -19 q 114 217 169 102 q 59 481 59 331 m 94 481 q 121 288 94 379 q 195 129 148 197 q 306 22 241 62 q 445 -19 370 -18 l 463 612 l 483 -18 q 620 26 556 -13 q 731 134 684 66 q 804 290 777 201 q 832 481 832 379 q 802 677 832 586 q 723 837 773 769 q 606 945 673 905 q 462 984 538 984 q 318 945 386 984 q 201 837 251 905 q 122 677 151 769 q 94 481 94 586 "},".":{"x_min":52.78125,"x_max":350.03125,"ha":372,"o":"m 52 12 q 91 84 52 54 q 186 113 130 113 q 261 95 227 113 q 322 43 294 76 q 350 -22 350 9 q 339 -59 350 -41 q 311 -89 329 -76 q 270 -110 294 -102 q 220 -118 247 -118 q 161 -107 188 -118 q 106 -74 134 -97 q 65 -31 79 -51 q 52 12 52 -11 m 87 12 q 116 -34 87 -15 q 186 -52 145 -52 q 255 -34 226 -52 q 284 12 284 -15 q 255 59 284 40 q 186 79 226 79 q 116 59 145 79 q 87 12 87 40 "},"”":{"x_min":63.890625,"x_max":583.375,"ha":617,"o":"m 63 976 q 102 1048 63 1019 q 197 1077 141 1077 q 260 1065 231 1077 q 306 1032 288 1052 q 354 1065 325 1052 q 419 1077 383 1077 q 493 1060 461 1077 q 541 1015 526 1043 l 556 1000 q 583 943 580 976 l 583 941 q 566 887 583 912 q 521 842 550 862 q 454 808 493 822 q 370 788 415 794 l 338 820 q 331 819 336 819 l 325 863 q 250 815 297 834 q 148 788 204 795 l 116 819 l 109 819 l 97 908 q 63 976 63 934 m 98 976 q 127 929 98 948 q 197 911 156 911 q 212 912 208 911 q 145 897 190 897 l 134 897 l 140 858 q 250 899 205 868 q 295 976 295 930 l 295 977 q 265 1023 294 1004 q 197 1043 237 1043 q 127 1023 156 1043 q 98 976 98 1004 m 320 976 q 350 929 320 948 q 419 911 379 911 q 434 912 430 911 q 368 897 412 897 l 356 897 l 362 858 q 472 899 427 868 q 518 976 518 930 l 518 977 q 488 1023 516 1004 q 419 1043 459 1043 q 350 1023 379 1043 q 320 976 320 1004 "},"@":{"x_min":63.890625,"x_max":879.234375,"ha":910,"o":"m 625 440 q 609 511 625 475 q 555 562 593 547 q 581 534 566 554 q 607 478 597 513 q 620 391 618 443 q 622 409 622 400 q 625 426 623 418 l 625 440 l 625 440 m 236 68 l 234 66 q 104 234 145 143 q 63 419 63 326 q 92 586 63 504 q 172 731 120 668 q 298 833 225 794 q 463 872 372 872 q 621 834 547 872 q 752 732 695 795 q 843 587 809 669 q 879 418 876 505 l 879 402 q 859 281 879 334 q 809 190 840 227 q 738 132 777 152 q 659 112 700 112 q 545 161 597 112 l 538 166 q 511 188 525 176 q 487 215 498 200 q 427 198 459 198 q 347 233 381 198 l 336 243 q 305 268 320 252 q 331 197 315 233 q 376 127 348 162 l 269 37 q 254 50 262 44 q 240 63 247 56 l 236 68 m 361 505 q 388 511 373 511 q 451 459 429 511 q 424 477 437 470 q 393 483 411 483 q 358 474 375 483 q 329 450 341 465 q 309 414 316 434 q 301 373 301 394 q 329 295 301 326 q 393 263 356 263 q 429 271 415 263 q 459 293 444 279 l 465 394 q 522 229 476 281 q 625 177 568 177 q 693 195 659 177 q 753 247 726 213 q 797 331 780 281 q 813 441 813 380 l 813 452 q 784 602 811 531 q 711 724 758 672 q 602 807 665 776 q 463 837 538 837 q 313 801 380 837 q 197 707 245 765 q 124 573 150 648 q 98 419 98 498 q 131 254 98 334 q 234 112 163 173 l 300 166 q 247 268 263 212 q 230 379 230 323 q 244 479 230 430 q 285 565 258 527 q 350 625 312 602 q 437 647 388 647 q 536 628 494 647 q 605 579 577 609 q 646 512 633 550 q 659 438 659 475 l 659 426 q 652 377 658 402 q 638 330 647 351 q 618 295 629 309 q 595 281 608 281 q 554 333 573 281 q 556 368 555 351 q 556 400 556 384 q 546 495 556 456 q 518 556 536 533 q 476 588 500 579 q 427 597 452 597 q 413 596 420 597 q 398 594 405 595 l 361 505 "},"f":{"x_min":79.171875,"x_max":627.828125,"ha":597,"o":"m 79 705 l 79 725 q 141 984 79 883 q 344 1144 204 1084 l 627 825 q 481 751 512 802 l 506 761 l 511 748 l 538 720 l 591 555 l 409 515 l 409 -63 l 148 -63 l 100 4 l 79 705 m 143 0 l 377 0 l 377 573 l 518 611 l 484 716 l 386 683 l 386 694 q 395 749 386 719 q 424 806 405 779 q 470 853 443 833 q 533 880 497 873 l 334 1102 q 168 966 223 1054 q 113 737 113 879 l 113 707 l 143 0 "},";":{"x_min":48.609375,"x_max":394.46875,"ha":413,"o":"m 66 12 q 105 84 66 55 q 200 113 144 113 q 274 96 241 113 q 334 45 306 79 q 363 -20 361 12 l 363 -22 q 347 -76 363 -51 q 302 -121 330 -101 q 234 -155 273 -141 q 151 -175 195 -169 q 112 -144 113 -144 l 100 -55 q 66 12 66 -26 m 48 468 q 61 513 48 491 q 94 550 73 534 q 143 576 115 566 q 205 586 172 586 q 294 564 255 586 q 363 506 333 543 q 394 433 394 469 q 381 389 394 409 q 348 354 369 369 q 300 331 327 340 q 240 322 272 322 q 169 334 201 322 q 108 370 137 347 q 63 416 79 393 q 48 468 48 440 m 83 468 q 118 411 83 434 q 205 387 154 387 q 293 411 256 387 q 329 468 329 434 q 293 526 329 501 q 205 551 256 551 q 118 526 154 551 q 83 468 83 501 m 101 12 q 130 -34 101 -15 q 200 -52 159 -52 q 215 -51 211 -52 q 148 -66 193 -66 l 137 -66 l 143 -105 q 253 -64 208 -95 q 298 12 298 -33 l 298 13 q 268 59 297 40 q 200 79 240 79 q 130 59 159 79 q 101 12 101 40 "},"“":{"x_min":66.671875,"x_max":586.15625,"ha":620,"o":"m 122 844 q 66 923 69 873 l 66 926 q 84 982 66 957 q 131 1028 101 1008 q 201 1062 161 1048 q 287 1083 241 1076 l 288 1073 l 318 1044 l 322 1004 q 400 1054 351 1034 q 509 1083 450 1075 l 511 1073 l 540 1044 l 552 958 l 561 950 q 558 951 559 951 q 556 952 558 951 l 561 950 q 586 891 586 925 q 547 822 586 851 q 456 794 509 794 q 398 805 425 794 q 354 834 372 816 l 345 841 q 300 807 329 820 q 234 794 270 794 q 176 805 202 794 q 131 834 150 816 l 122 844 m 298 926 q 269 973 298 954 q 200 991 240 991 q 184 990 188 991 q 251 1005 206 1005 l 262 1005 l 256 1044 q 146 1003 191 1034 q 101 926 101 972 l 101 925 q 131 879 102 898 q 200 859 159 859 q 269 879 240 859 q 298 926 298 898 m 520 926 q 491 973 520 954 q 422 991 462 991 q 406 990 411 991 q 473 1005 429 1005 l 484 1005 l 479 1044 q 368 1003 413 1034 q 323 926 323 972 l 323 925 q 353 879 325 898 q 422 859 381 859 q 491 879 462 859 q 520 926 520 898 "},"i":{"x_min":69.453125,"x_max":479.203125,"ha":519,"o":"m 69 932 q 84 993 69 965 q 125 1043 100 1022 q 186 1076 151 1063 q 259 1088 220 1088 q 359 1065 315 1088 q 427 1002 404 1041 l 437 994 q 479 897 479 952 q 464 837 479 865 q 425 789 450 809 q 366 757 400 769 q 294 745 333 745 q 213 760 250 745 q 150 801 176 775 l 141 809 q 88 862 108 830 q 69 932 69 894 m 95 709 l 429 744 l 459 705 l 412 -63 l 150 -63 l 111 -33 l 95 709 m 145 0 l 348 0 l 391 705 l 130 677 l 145 0 m 104 932 q 116 884 104 907 q 150 845 129 862 q 199 820 170 829 q 259 811 227 811 q 369 845 325 811 q 413 932 413 880 q 402 979 413 957 q 369 1018 390 1001 q 320 1044 348 1034 q 259 1054 291 1054 q 199 1044 227 1054 q 150 1018 170 1034 q 116 979 129 1001 q 104 932 104 957 "},"6":{"x_min":63.890625,"x_max":854.234375,"ha":886,"o":"m 490 979 q 708 779 608 862 q 541 679 612 733 q 642 648 587 673 q 744 578 697 623 q 822 469 791 533 q 854 320 854 405 q 827 155 854 230 q 752 25 800 80 q 637 -61 704 -30 q 490 -91 570 -91 q 350 -64 415 -91 q 238 1 284 -37 q 161 76 191 40 q 109 159 131 112 q 75 263 87 205 q 63 394 63 322 q 75 516 63 444 q 125 673 87 587 q 231 859 162 759 q 416 1063 301 958 q 490 979 422 1057 m 455 -26 q 590 3 529 -25 q 695 81 651 31 q 764 201 740 131 q 788 355 788 270 q 763 481 788 427 q 696 572 737 536 q 603 628 655 609 q 497 647 551 647 q 397 630 443 647 q 275 413 316 554 q 616 820 323 682 q 413 1013 484 922 q 258 839 319 927 q 161 669 197 751 q 112 516 126 587 q 98 393 98 444 q 125 221 98 298 q 197 88 151 144 q 310 3 244 33 q 455 -26 376 -26 "},"A":{"x_min":-6.9375,"x_max":936.1875,"ha":895,"o":"m -6 1 q 99 275 43 133 q 215 558 155 416 q 336 838 275 700 q 456 1120 397 977 q 726 489 615 775 q 936 -95 837 204 l 498 -101 l 461 -51 l 456 -75 l 61 -75 l -6 1 m 398 -13 l 437 150 l 487 -36 l 859 -30 q 454 1018 677 522 q 232 510 338 765 q 26 -9 126 255 l 398 -13 "},"‘":{"x_min":66.671875,"x_max":363.921875,"ha":382,"o":"m 122 844 q 66 923 69 873 l 66 926 q 84 982 66 957 q 131 1028 101 1008 q 201 1062 161 1048 q 287 1083 241 1076 l 288 1073 l 318 1044 l 330 958 l 338 950 q 363 891 363 925 q 325 822 363 851 q 234 794 287 794 q 176 805 202 794 q 131 834 150 816 l 122 844 m 298 926 q 269 973 298 954 q 200 991 240 991 q 184 990 188 991 q 251 1005 206 1005 l 262 1005 l 256 1044 q 146 1003 191 1034 q 101 926 101 972 l 101 925 q 131 879 102 898 q 200 859 159 859 q 269 879 240 859 q 298 926 298 898 "},"n":{"x_min":83.34375,"x_max":734.78125,"ha":795,"o":"m 83 709 l 416 744 l 416 738 q 502 761 454 758 q 590 737 551 761 q 655 673 629 713 l 661 669 q 715 584 695 634 q 734 475 734 533 q 716 252 734 384 q 666 -54 698 120 l 393 -79 l 376 -51 l 137 -51 l 94 -4 l 83 709 m 133 2 l 336 2 l 387 441 l 387 -11 l 605 8 q 652 290 637 163 q 668 501 668 416 q 657 585 668 544 q 625 657 645 626 q 573 707 604 688 q 504 726 543 726 q 376 662 427 723 l 379 705 l 118 677 l 133 2 "},"O":{"x_min":65.28125,"x_max":1037.578125,"ha":1072,"o":"m 554 -76 q 398 -31 468 -70 q 266 61 329 8 q 120 248 175 140 q 65 494 65 356 q 102 706 65 607 q 202 879 138 805 q 352 996 266 954 q 536 1038 438 1038 q 724 991 633 1038 q 884 863 815 944 q 995 678 954 783 q 1037 459 1037 573 q 1002 259 1037 352 q 904 93 966 165 q 746 -27 843 22 q 554 -76 650 -76 l 554 -76 m 533 623 l 551 -12 q 715 31 638 -8 q 848 140 791 72 q 938 300 905 209 q 972 494 972 390 q 938 693 972 600 q 844 854 904 786 q 705 963 784 923 q 536 1004 626 1004 q 366 963 445 1004 q 227 854 287 923 q 134 693 168 786 q 100 494 100 600 q 132 300 100 391 q 222 141 165 209 q 354 32 279 73 q 518 -12 430 -8 l 533 623 "},"3":{"x_min":40.28125,"x_max":791.734375,"ha":813,"o":"m 566 258 q 563 259 566 259 l 566 258 m 290 379 q 218 365 263 379 q 250 363 237 363 q 273 362 263 362 q 344 370 333 362 q 318 376 331 373 q 290 379 305 379 m 168 370 q 151 386 169 370 l 40 841 q 196 973 106 933 q 377 1013 286 1013 q 549 979 476 1013 q 669 884 622 944 l 673 882 q 677 877 676 879 q 680 872 677 875 l 684 869 q 763 727 736 809 q 791 558 791 644 q 780 454 791 505 q 745 359 769 404 q 686 280 722 315 q 601 223 651 245 q 641 122 641 176 q 622 46 641 83 q 568 -19 602 9 q 488 -66 534 -48 q 386 -84 441 -84 q 293 -69 344 -84 q 183 -20 241 -54 q 152 6 155 4 q 144 11 148 8 l 188 197 l 168 370 m 211 244 q 334 224 295 243 q 373 186 373 205 q 350 158 373 170 q 284 145 327 145 q 248 147 268 145 q 206 155 229 150 l 183 29 q 270 -7 227 4 q 351 -19 312 -19 q 441 -4 400 -19 q 512 36 481 11 q 559 92 543 61 q 576 156 576 123 q 559 218 576 188 q 506 270 543 247 q 606 316 565 284 q 674 391 647 348 q 713 486 701 434 q 726 593 726 538 q 706 738 726 668 q 643 861 686 808 q 535 947 601 915 q 377 979 469 979 q 213 945 294 979 q 77 834 133 911 l 175 430 q 255 444 216 444 q 346 422 311 444 q 381 375 381 400 q 356 341 381 355 q 273 327 331 327 q 205 331 244 327 l 211 244 "},"m":{"x_min":84.734375,"x_max":1019.53125,"ha":1082,"o":"m 84 709 l 418 744 l 416 738 q 504 761 456 758 q 579 742 544 761 q 641 691 613 723 q 787 761 705 759 q 875 736 836 761 q 946 673 913 712 q 999 581 979 634 q 1019 470 1019 529 q 999 240 1019 375 q 951 -59 979 105 l 677 -81 l 652 -56 l 394 -79 l 377 -51 l 138 -51 l 98 8 l 84 709 m 134 2 l 337 2 l 388 441 l 388 -11 l 620 8 l 672 440 l 672 -13 l 890 4 q 935 281 918 154 q 952 502 952 408 q 941 586 952 545 q 909 658 930 627 q 857 707 887 688 q 788 726 826 726 q 661 662 711 723 l 643 627 q 586 699 622 672 q 505 726 550 726 q 377 662 427 723 l 380 705 l 119 677 l 134 2 "},"9":{"x_min":48.609375,"x_max":857.015625,"ha":886,"o":"m 433 1047 q 611 1002 537 1044 q 738 895 684 961 q 786 832 763 865 q 823 758 808 798 q 847 670 838 718 q 857 563 857 622 q 830 383 857 473 q 758 206 804 293 q 648 41 712 120 q 509 -105 584 -37 q 403 -10 437 -45 q 319 75 369 25 q 372 140 347 106 q 422 208 398 173 l 409 208 q 288 234 352 208 q 171 311 225 261 q 83 432 118 361 q 48 593 48 504 q 77 777 48 694 q 156 919 105 859 q 277 1011 206 979 q 430 1047 347 1044 l 433 1047 m 431 1012 q 291 979 355 1009 q 181 894 227 948 q 109 763 134 840 q 83 593 83 686 q 110 454 83 513 q 181 354 137 394 q 279 293 225 313 q 388 273 333 273 q 443 277 416 273 q 493 293 469 281 q 615 572 572 430 q 369 79 568 306 q 420 29 393 59 q 476 -27 448 0 q 602 106 544 33 q 702 260 659 180 q 768 425 744 340 q 791 597 791 511 q 766 768 791 693 q 694 895 741 843 q 581 977 647 948 q 431 1012 515 1007 "},"l":{"x_min":75,"x_max":491.703125,"ha":529,"o":"m 75 1061 l 461 1094 l 491 1055 l 418 -63 l 156 -63 l 113 -11 l 75 1061 m 151 0 l 354 0 l 423 1057 l 111 1029 l 151 0 "},"8":{"x_min":61.109375,"x_max":1012.578125,"ha":1040,"o":"m 244 133 q 268 212 244 173 q 184 288 222 248 q 119 375 147 329 q 76 473 91 420 q 61 586 61 526 q 97 757 61 677 q 195 896 133 837 q 341 990 258 955 q 520 1025 425 1025 q 709 984 619 1025 q 866 877 798 944 q 972 725 933 811 q 1012 551 1012 640 q 953 337 1012 434 q 798 181 894 240 q 827 98 827 141 q 807 29 827 62 q 750 -27 786 -2 q 666 -69 715 -52 q 547 -84 618 -86 q 420 -61 476 -83 q 329 -2 365 -38 l 322 4 q 265 62 286 29 q 244 133 244 95 m 279 133 q 295 74 279 101 q 342 25 312 47 q 412 -9 372 4 q 498 -25 452 -22 l 520 637 l 541 -25 q 627 -9 587 -22 q 697 25 668 4 q 745 74 727 47 q 762 133 762 101 q 750 183 762 159 q 715 226 737 206 q 809 288 766 251 q 883 372 852 326 q 930 473 913 419 q 947 586 947 527 q 913 743 947 669 q 822 871 880 816 q 686 958 763 926 q 520 990 608 990 q 355 958 433 990 q 220 871 277 926 q 129 743 162 816 q 95 586 95 669 q 112 473 95 527 q 159 372 129 419 q 232 289 190 326 q 326 227 275 252 q 279 133 279 187 "},"p":{"x_min":79.171875,"x_max":838.953125,"ha":863,"o":"m 79 708 l 412 751 l 423 730 q 502 747 458 747 l 512 747 q 633 711 575 747 q 737 613 691 675 q 811 472 783 552 q 838 304 838 391 q 816 146 838 220 q 752 17 793 72 q 659 -69 712 -37 q 543 -101 605 -101 q 497 -95 525 -101 q 433 -77 470 -90 l 429 -406 l 168 -406 l 136 -361 l 79 708 m 162 -350 l 373 -350 l 373 372 l 405 -13 q 508 -36 472 -36 q 612 -6 563 -36 q 696 73 661 22 q 752 193 732 125 q 773 338 773 261 q 753 484 773 416 q 697 603 733 552 q 611 683 661 654 q 502 712 562 712 q 377 650 419 712 l 377 712 l 115 677 l 162 -350 "},"4":{"x_min":26.390625,"x_max":982.015625,"ha":976,"o":"m 461 1009 l 491 970 l 501 851 l 904 863 l 934 825 q 913 650 925 743 q 888 473 901 558 l 951 477 l 982 438 l 982 184 l 857 177 q 845 70 851 131 q 832 -51 838 9 l 513 -75 l 475 -44 q 463 50 469 -4 q 451 155 458 104 l 195 141 l 156 172 q 81 593 113 387 q 26 1009 50 800 l 461 1009 m 65 963 q 186 208 104 615 l 479 223 q 493 108 486 165 q 506 -6 500 51 l 769 12 q 782 140 776 83 q 795 241 788 197 l 916 248 l 916 440 l 812 433 q 841 628 827 530 q 865 827 854 726 l 481 818 l 481 363 l 429 973 l 65 963 "},"R":{"x_min":73.609375,"x_max":1022.296875,"ha":1053,"o":"m 122 -43 q 106 194 113 68 q 93 454 100 320 q 82 724 87 587 q 73 991 77 861 q 290 1014 181 1007 q 511 1023 398 1022 l 520 1023 q 760 986 661 1023 q 937 862 859 950 q 1015 607 1015 775 q 971 393 1015 475 q 862 280 927 312 q 885 224 872 254 q 915 165 898 194 q 952 111 932 137 q 993 63 972 86 q 1022 33 1013 40 q 655 -141 818 -40 l 619 -113 q 561 -9 588 -66 q 511 116 534 47 q 498 25 504 68 q 487 -55 493 -16 l 161 -73 l 122 -43 m 788 333 q 902 429 855 352 q 950 641 950 506 q 841 904 950 820 q 520 988 732 988 l 511 988 q 302 981 401 987 q 109 961 202 975 q 155 -6 125 436 l 426 8 q 463 333 447 138 q 491 791 479 527 l 498 295 q 629 -65 554 50 q 933 80 766 19 q 788 333 838 181 "},"o":{"x_min":69.453125,"x_max":845.90625,"ha":882,"o":"m 69 344 q 97 492 69 422 q 175 617 126 562 q 290 708 223 672 q 444 745 356 744 q 602 704 531 745 q 727 601 673 662 q 813 463 782 540 q 845 309 845 387 q 817 151 845 225 q 738 22 788 77 q 621 -63 688 -31 q 477 -95 554 -95 q 328 -61 401 -95 q 197 34 255 -26 q 104 174 140 94 q 69 344 69 254 m 104 344 q 131 197 104 266 q 204 78 158 129 q 311 -1 250 27 q 443 -30 373 -30 q 575 -1 513 -30 q 682 78 636 27 q 754 197 727 129 q 780 344 780 266 q 756 484 780 419 q 689 600 732 550 q 589 682 647 651 q 466 719 531 713 l 447 320 l 422 719 q 297 684 355 715 q 197 602 240 652 q 129 486 154 552 q 104 344 104 419 "},"5":{"x_min":44.453125,"x_max":925.078125,"ha":946,"o":"m 402 195 q 343 192 375 195 q 281 186 312 188 q 362 160 320 170 q 436 150 404 150 q 477 157 459 150 q 497 186 494 165 l 497 187 q 453 193 477 191 q 402 195 429 195 m 894 1009 l 925 970 q 900 651 916 797 q 863 381 884 505 l 669 397 q 731 357 702 380 q 784 304 759 334 q 827 238 809 275 q 844 158 844 202 q 815 39 844 88 q 738 -40 786 -9 q 632 -86 691 -72 q 513 -101 573 -101 q 337 -72 426 -101 q 197 -5 248 -44 q 140 37 145 33 l 190 168 q 172 165 179 165 q 134 194 138 194 q 80 564 102 368 q 44 984 58 761 l 894 1009 m 80 951 q 113 571 93 748 q 162 236 134 394 q 258 253 202 245 q 368 261 313 261 q 430 257 401 261 q 482 245 459 254 q 518 224 505 237 q 531 191 531 211 l 531 186 q 500 130 527 145 q 436 115 473 115 q 381 120 409 115 q 325 134 352 126 q 272 152 297 143 q 229 169 247 161 l 181 50 q 316 -13 237 9 q 479 -36 395 -36 q 586 -23 533 -36 q 683 16 640 -11 q 752 88 726 44 q 779 193 779 131 q 749 288 779 247 q 675 355 719 329 q 581 395 632 381 q 487 408 530 408 q 434 402 455 408 l 436 480 l 802 450 q 836 694 822 563 q 858 973 851 825 l 80 951 "}}}
